<?xml version="1.0" encoding="UTF-8"?>
<svg width="752pt" height="752pt" version="1.1" viewBox="0 0 752 752" xmlns="http://www.w3.org/2000/svg">
 <path d="m376 506.8c34.691 0 67.961-13.781 92.492-38.312s38.312-57.801 38.312-92.492-13.781-67.961-38.312-92.492c-24.531-24.527-57.801-38.309-92.492-38.309s-67.961 13.781-92.492 38.309c-24.527 24.531-38.309 57.801-38.309 92.492-0.011719 34.695 13.762 67.973 38.297 92.508 24.531 24.531 57.809 38.309 92.504 38.297zm0-244.46c30.145 0 59.055 11.973 80.371 33.289 21.316 21.316 33.289 50.223 33.289 80.367s-11.973 59.055-33.289 80.371-50.227 33.289-80.371 33.289-59.051-11.973-80.367-33.289c-21.316-21.316-33.289-50.227-33.289-80.371s11.973-59.051 33.289-80.367c21.316-21.316 50.223-33.289 80.367-33.289zm92.918 116.12c0.011719-24.324-9.6406-47.656-26.836-64.863-17.195-17.203-40.523-26.871-64.848-26.871v183.42c24.316 0 47.637-9.6602 64.828-26.852 17.195-17.195 26.855-40.516 26.855-64.832zm-94.148 146.81c-4.7344 0-8.5703 3.8398-8.5703 8.5742v58.531c0 4.7344 3.8359 8.5742 8.5703 8.5742s8.5742-3.8398 8.5742-8.5742v-58.676c0-2.2734-0.90625-4.4531-2.5117-6.0586-1.6094-1.6094-3.7891-2.5117-6.0625-2.5117zm117.92-42.621c-3.3711-2.3711-7.9492-2.0039-10.906 0.86719-2.9531 2.875-3.4453 7.4414-1.168 10.879l41.484 41.484c3.3984 2.9961 8.543 2.832 11.742-0.37891 3.1992-3.2109 3.3438-8.3594 0.33203-11.746zm32.441-105.09v-0.003906c0 4.7344 3.8359 8.5742 8.5703 8.5742h58.676c4.7344 0 8.5742-3.8398 8.5742-8.5742 0-4.7305-3.8398-8.5703-8.5742-8.5703h-58.676c-4.6055-0.003907-8.3945 3.6367-8.5703 8.2422zm-30.734-106.18 41.484-41.484c2.9961-3.3984 2.832-8.543-0.37891-11.742-3.2109-3.1992-8.3594-3.3438-11.746-0.33594l-41.484 41.484v0.003906c-2.9961 3.3984-2.832 8.543 0.37891 11.742 3.2109 3.1953 8.3555 3.3438 11.746 0.33203zm-117.21-44.516h-0.003906c4.7344 0 8.5742-3.8398 8.5742-8.5703v-58.68c0-4.7344-3.8398-8.5703-8.5742-8.5703-4.7305 0-8.5703 3.8359-8.5703 8.5703v58.68c0 2.2812 0.91016 4.4688 2.5273 6.0742 1.6172 1.6094 3.8086 2.5078 6.0938 2.4961zm-117.92 42.621c3.3867 2.6094 8.1797 2.3242 11.23-0.66797 3.0547-2.9922 3.4336-7.7812 0.89062-11.219l-41.484-41.484c-1.5703-1.7656-3.8008-2.8086-6.1641-2.875s-4.6484 0.84375-6.3164 2.5195-2.5703 3.9648-2.4961 6.3281c0.078125 2.3594 1.125 4.5859 2.8984 6.1523zm-99.453 113.66h58.488c4.7305 0 8.5703-3.8359 8.5703-8.5703s-3.8398-8.5742-8.5703-8.5742h-58.68c-4.7344 0-8.5703 3.8398-8.5703 8.5742s3.8359 8.5703 8.5703 8.5703zm104.19 94.715c-2.2773-0.015626-4.4648 0.89062-6.0625 2.5117l-41.484 41.484c-1.6211 1.6016-2.5312 3.7852-2.5312 6.0625 0 2.2773 0.91016 4.4609 2.5312 6.0625 3.3555 3.3203 8.7656 3.3203 12.121 0l41.484-41.531 0.003906-0.003906c2.418-2.4531 3.1289-6.1211 1.8086-9.3008-1.3242-3.1836-4.4258-5.2656-7.8711-5.2852z"/>
</svg>
